<?xml version="1.0" encoding="UTF-8"?>
<!-- Generator: Adobe Illustrator 23.0.3, SVG Export Plug-In . SVG Version: 6.00 Build 0)  -->
<svg xmlns="http://www.w3.org/2000/svg" xmlns:xlink="http://www.w3.org/1999/xlink" version="1.1" x="0px" y="0px" viewBox="0 0 120 120" enable-background="new 0 0 120 120" xml:space="preserve" width="300px" height="300px">

<g id="icon" transform="" fill="#ffad00" class="">
	<g transform="" fill="#ffad00" class="">
		<path fill="#ffad00" d="M32,65c-7.7000122,0-14,6.2999878-14,14s6.2999878,14,14,14s14-6.2999878,14-14S39.7000122,65,32,65z     M39.5999756,83.5999756l-3,3L32,82l-4.5999756,4.5999756l-3-3L29,79l-4.5999756-4.6000366l3-3L32,76l4.5999756-4.6000366l3,3    L35,79L39.5999756,83.5999756z" transform="" class=""/>
		<path fill="#ffad00" d="M88,27c-7.7000122,0-14,6.2999878-14,14s6.2999878,14,14,14s14-6.2999878,14-14S95.7000122,27,88,27z     M86.7999878,48.5l-6.8999634-6.2999878L82.7999878,39L86.5,42.3999634l7.2000122-8.1999512L96.8999634,37L86.7999878,48.5z" transform="" class=""/>
		<circle fill="#ffad00" cx="60" cy="51.5" r="2" transform="" class=""/>
		<circle fill="#ffad00" cx="32" cy="51.499939" r="2" transform="" class=""/>
		<circle fill="#ffad00" cx="42" cy="41" r="2" transform="" class=""/>
		<circle fill="#ffad00" cx="78" cy="79" r="2" transform="" class=""/>
		<circle fill="#ffad00" cx="70" cy="79" r="2" transform="" class=""/>
		<circle fill="#ffad00" cx="88" cy="68" r="2" transform="" class=""/>
		<circle fill="#ffad00" cx="60" cy="67.9995117" r="2" transform="" class=""/>
		<circle fill="#ffad00" cx="32" cy="60" r="2" transform="" class=""/>
		<circle fill="#ffad00" cx="60" cy="60" r="2" transform="" class=""/>
		<circle fill="#ffad00" cx="88" cy="60" r="2" transform="" class=""/>
		<circle fill="#ffad00" cx="85.5" cy="75.4997559" r="2" transform="" class=""/>
		<circle fill="#ffad00" cx="57.5" cy="44" r="2" transform="" class=""/>
		<circle fill="#ffad00" cx="34.5" cy="44" r="2" transform="" class=""/>
		<circle fill="#ffad00" cx="50" cy="41" r="2" transform="" class=""/>
		<circle fill="#ffad00" cx="62.5" cy="75.5001831" r="2" transform="" class=""/>
	</g>
</g>
</svg>
