<?xml version="1.0" encoding="UTF-8"?>
<svg xmlns="http://www.w3.org/2000/svg" viewBox="0 0 120 120" width="300px" height="300px"><path d="M56.54 77.918a.28.28 0 0 0-.036.003l-8.693 2.33L27.25 69.2l-2.9.776L37.67 82.97l-2.9.776c-1.884.564-7.28 3.168-8.786 3.907l-5.64-3.664-2.415.643 4.93 4.89-1.828 6.7 2.415-.646L26.5 89.58c1.67-.11 7.648-.554 9.565-1.01l2.898-.775-5.035 17.914 2.9-.778L49.11 85.08l8.692-2.33a.283.283 0 0 0 .032-.014c3.19-.917 5.462-2.656 5.115-3.953s-3.19-1.666-6.41-.865zM102 41h-.02A9.99 9.99 0 0 0 92 51c0 4.406 3.284 10.327 6.088 14.583L49.404 37.345C52.304 33.058 56 26.675 56 22v-.023A9.99 9.99 0 0 0 46 12h-.02A9.99 9.99 0 0 0 36 22c0 7.687 10 19.998 10 20l44.39 26.054-21.214 6.06a3 3 0 1 0 1.65 5.77L102 71s10-12.312 10-20v-.023A9.99 9.99 0 0 0 102 41zM40 22a6 6 0 1 1 6 6 6 6 0 0 1-6-6zm62 35a6 6 0 1 1 6-6 6 6 0 0 1-6 6z" fill="#ffad00" class="" transform=""/></svg>
