<?xml version="1.0" encoding="UTF-8"?>
<!-- Generator: Adobe Illustrator 21.0.2, SVG Export Plug-In . SVG Version: 6.00 Build 0)  -->
<svg xmlns="http://www.w3.org/2000/svg" xmlns:xlink="http://www.w3.org/1999/xlink" version="1.1" x="0px" y="0px" viewBox="0 0 120 120" enable-background="new 0 0 120 120" xml:space="preserve" width="300px" height="300px">


<g id="icon" fill="#ffad00" class="" transform="">
	<path fill="#ffad00" d="M84,37.66699c0-0.01862,0-0.03522,0-0.05469C83.98438,24.28217,73.16602,13.48541,59.8335,13.5   c-0.01764,0-0.03522,0-0.05267,0C46.44775,13.51459,35.65228,24.33398,35.6665,37.66699C35.6665,56.24506,59.8335,86,59.8335,86   S84,56.24506,84,37.66699z M41.3335,37.89258c0-10.21686,8.28314-18.49951,18.5-18.49951   c10.20862,0.02222,18.4787,8.29138,18.5,18.49951c0,10.21777-8.28271,18.50049-18.5,18.50049   C49.61664,56.39307,41.3335,48.11035,41.3335,37.89258z" class="" transform=""/>
	<path fill="#ffad00" d="M30.27588,80.59857c0,10.31842,13.05658,18.40039,29.72461,18.40039   c16.66699,0,29.72357-8.08197,29.72357-18.40039c0-5.55658-3.86127-10.72461-10.59277-14.1767   c-0.19427-0.10059-1.40674-0.65631-1.81683-0.836c-1.01465,1.78912-2.05377,3.5235-3.09088,5.19238   c0.58008,0.23541,2.01031,0.90045,2.16754,0.98053c4.66016,2.39062,7.33295,5.6123,7.33295,8.83978   c0,6.72174-10.8642,12.40039-23.72357,12.40039c-12.86041,0-23.72461-5.67865-23.72461-12.40039   c0-3.24609,2.69922-6.48138,7.40533-8.87592c0.58441-0.29688,1.19922-0.57037,1.82709-0.83203   c-0.49634-0.74963-2.55713-4.19305-3.09283-5.1806c-0.48865,0.21869-0.98828,0.42767-1.45508,0.66498   C34.17041,69.83008,30.27588,75.01459,30.27588,80.59857z" class="" transform=""/>
</g>
</svg>
